<?xml version="1.0" encoding="iso-8859-1"?>
<!-- Uploaded to: SVG Repo, www.svgrepo.com, Generator: SVG Repo Mixer Tools -->
<svg height="800px" width="800px" version="1.1" id="Layer_1" xmlns="http://www.w3.org/2000/svg" xmlns:xlink="http://www.w3.org/1999/xlink" 
	 viewBox="0 0 495 495" xml:space="preserve">
<g>
	<path style="fill:#46F8FF;" d="M419.791,286.649v-24.011c0-13.24-10.771-24.011-24.012-24.011
		c-13.239,0-24.011,10.771-24.011,24.011v24.011h24.011H419.791z"/>
	<path style="fill:#46F8FF;" d="M256.38,190.189l75.497,68.837c1.88-33.622,29.819-60.4,63.903-60.4
		c14.77,0,28.377,5.042,39.221,13.477V27.514L256.2,190.189H256.38z"/>
	<polygon style="fill:#9BFBFF;" points="435,27.514 0,27.514 217.5,225.284 	"/>
	<path style="fill:#00E7F0;" d="M331.769,286.649v-24.011c0-1.213,0.041-2.415,0.108-3.612l-75.497-68.837h-0.18l-38.7,35.095
		l-38.79-35.095L0,353.054h296.56v-66.405H331.769z"/>
	<polygon style="fill:#46F8FF;" points="0,27.514 0,353.054 178.71,190.189 	"/>
	<polygon style="fill:#2488FF;" points="371.769,286.649 331.769,286.649 296.56,286.649 296.56,353.054 296.56,467.486 
		395.78,467.486 395.78,286.649 	"/>
	<path style="fill:#005ECE;" d="M459.791,286.649v-24.011c0-20.526-9.722-38.812-24.791-50.534
		c-10.844-8.435-24.45-13.477-39.221-13.477c-34.083,0-62.023,26.778-63.903,60.4c-0.067,1.196-0.108,2.399-0.108,3.612v24.011h40
		v-24.011c0-13.24,10.771-24.011,24.011-24.011c13.24,0,24.012,10.771,24.012,24.011v24.011H395.78v180.836H495V286.649H459.791z"/>
</g>
</svg>